# xmcd CD database file
#
# Track frame offsets:
#	150
#	19851
#	34504
#	49903
#	64800
#	79301
#	104433
#	122180
#
# Disc length: 1813 seconds
#
# Revision: 0
# Processed by: cddbd v1.5.2PL0 Copyright (c) Steve Scherf et al.
# Submitted via: CDex 1.70beta2
#
DISCID=69071308
DTITLE=Corporación Latina - Is Here!
DYEAR=1900
DGENRE=Salsa
TTITLE0=Vagabundo
TTITLE1=Amigo
TTITLE2=Así es la vida
TTITLE3=Venezuela
TTITLE4=Siciliana
TTITLE5=Desegaño (Parte 2)
TTITLE6=Invocación a los espíritus
TTITLE7=Soledad
EXTD=
EXTT0=
EXTT1=
EXTT2=
EXTT3=
EXTT4=
EXTT5=
EXTT6=
EXTT7=
PLAYORDER=
